<?xml version="1.0" encoding="utf-8"?>
<!-- Generator: Adobe Illustrator 24.0.0, SVG Export Plug-In . SVG Version: 6.00 Build 0)  -->
<svg version="1.1" id="Layer_1" xmlns="http://www.w3.org/2000/svg" xmlns:xlink="http://www.w3.org/1999/xlink" x="0px" y="0px"
	 viewBox="0 0 198.47 217.89" style="enable-background:new 0 0 198.47 217.89;" xml:space="preserve">
<style type="text/css">
	.st0{fill:none;stroke:#96A032;stroke-width:5;stroke-linecap:round;stroke-miterlimit:10;}
	.st1{fill:none;stroke:#4F2584;stroke-width:6;stroke-linecap:round;stroke-miterlimit:10;}
	.st2{fill:#FC9FD8;stroke:#3E1F5E;stroke-width:6;stroke-miterlimit:10;}
	.st3{fill:#4F2584;}
	.st4{fill:#FFFFFF;}
	.st5{fill:#FED7F1;}
	.st6{fill:#F476A9;}
	.st7{fill:none;stroke:#4F2584;stroke-width:6;stroke-miterlimit:10;}
	.st8{fill:none;stroke:#3E1F5E;stroke-width:6;stroke-miterlimit:10;}
	.st9{fill:#EA5C93;}
</style>
<path class="st0" d="M101.61,109.97c0.81-6.2-16.18-90.61,36.13-93.84c0,0-6.81,27.51-34.58,33.44"/>
<path class="st0" d="M102.47,44.8c0,0,9.17-17.63-16.45-25.16C86.02,19.64,81.84,51.77,102.47,44.8z"/>
<path class="st1" d="M71.34,65.95c5.8,3.17,3.01,11.85-1.68,14.6C57.92,87.44,49.29,69.75,54.28,60.6c3-5.49,8.97-9.19,15.22-9.58
	c8.6-0.54,16.82,5.1,20.27,12.83c2.83,6.35,2.57,13.58,2.25,20.52c-0.38,8.36-0.77,16.71-1.15,25.07"/>
<path class="st1" d="M52.73,71.93C41.51,79.14,35.74,93.8,39.74,106.6c1.13,3.61,3.29,7.32,6.91,8.41"/>
<path class="st1" d="M129.34,65.95c-5.8,3.17-3.01,11.85,1.68,14.6c11.74,6.89,20.37-10.81,15.38-19.96
	c-3-5.49-8.97-9.19-15.22-9.58c-8.6-0.54-16.82,5.1-20.27,12.83c-2.83,6.35-2.57,13.58-2.25,20.52c0.38,8.36,0.77,16.71,1.15,25.07"
	/>
<path class="st1" d="M146.69,94.22c-11.32-8.05-29.26,1.09-24.93,15.74c2.67,9.03,18.48,18.62,24.32,7.04
	c2.51-4.98,0.12-10.63-4.88-12.82"/>
<path class="st1" d="M54.49,94.22c11.32-8.05,29.26,1.09,24.93,15.74c-2.67,9.03-18.48,18.62-24.32,7.04
	c-2.51-4.98-0.12-10.63,4.88-12.82"/>
<path class="st1" d="M147.95,71.93c11.22,7.21,16.98,21.87,12.98,34.67c-1.13,3.61-3.29,7.32-6.91,8.41"/>
<path class="st2" d="M164.63,126.87v21.23c0,28.1-22.78,50.89-50.88,50.89H84.33c-12.2,0-23.4-4.3-32.17-11.47
	C40.73,178.2,33.44,164,33.44,148.1v-21.23c0-11.09,9-20.09,20.09-20.09h91.01C155.64,106.78,164.63,115.78,164.63,126.87z"/>
<g>
	<ellipse class="st3" cx="85.67" cy="141.12" rx="10.25" ry="13.3"/>
	<ellipse class="st3" cx="115.67" cy="141.12" rx="10.25" ry="13.3"/>
</g>
<circle class="st4" cx="88.77" cy="137.27" r="4.83"/>
<circle class="st4" cx="118.77" cy="137.27" r="4.83"/>
<path class="st5" d="M55.59,186.73c-12.19-8.3-20.67-21.83-22.03-37.67l-1.82-21.15c-0.95-11.05,7.24-20.79,18.29-21.74l2.38-0.21
	C48.29,117.48,44.02,142.21,55.59,186.73z"/>
<path class="st6" d="M145.54,188.2c11.78-8.87,19.62-22.78,20.23-38.67l0.82-21.21c0.43-11.08-8.22-20.42-19.3-20.85l-2.39-0.09
	C149.56,118.69,155,143.19,145.54,188.2z"/>
<path class="st7" d="M113.74,198.99H84.33c-28.1,0-50.89-22.78-50.89-50.89v-21.22c0-11.1,8.99-20.09,20.09-20.09h91.01
	c11.1,0,20.09,8.99,20.09,20.09v21.22C164.63,176.21,141.85,198.99,113.74,198.99z"/>
<path class="st8" d="M179.06,253.48"/>
<g>
	<path class="st3" d="M136.12,153.44c-0.94,0-1.8,0.48-2.34,1.24c-6.68,9.4-19.01,15.72-33.11,15.72c-14.1,0-26.43-6.32-33.11-15.72
		c-0.54-0.76-1.4-1.24-2.34-1.24h-0.41c-2.3,0-3.61,2.59-2.29,4.47c7.75,11.06,21.95,18.49,38.15,18.49
		c16.2,0,30.4-7.42,38.15-18.49c1.32-1.88,0-4.47-2.29-4.47H136.12z"/>
</g>
<circle class="st9" cx="58.38" cy="144.13" r="7.96"/>
<circle class="st9" cx="141.38" cy="144.13" r="7.96"/>
</svg>
