<svg width="62" height="88" viewBox="0 0 62 88" fill="none" xmlns="http://www.w3.org/2000/svg">
<path d="M40.8973 51.1029H33.2378V42.1542C33.2378 32.98 25.7931 25.5353 16.6189 25.5353C7.44466 25.5353 0 32.98 0 42.1542V86.9618V87.0371L40.9188 86.9833C50.8235 86.9726 58.8375 78.9371 58.8375 69.0431C58.8375 59.1384 50.802 51.1029 40.8973 51.1029Z" fill="#6A1B9A"/>
<path d="M15.3717 20.454C21.0223 20.454 25.5987 15.8776 25.5987 10.227C25.5987 4.57637 21.0223 0 15.3717 0C9.72107 0 5.14471 4.57637 5.14471 10.227C5.14471 15.8776 9.72107 20.454 15.3717 20.454Z" fill="#F06292"/>
<path d="M58.0649 39.6741C60.2265 34.4557 57.7484 28.4731 52.53 26.3115C47.3116 24.1499 41.329 26.628 39.1674 31.8464C37.0058 37.0648 39.4839 43.0474 44.7023 45.209C49.9207 47.3706 55.9033 44.8925 58.0649 39.6741Z" fill="#F06292"/>
</svg>
